<mxfile host="Electron" modified="2024-07-19T17:31:32.028Z" agent="Mozilla/5.0 (Macintosh; Intel Mac OS X 10_15_7) AppleWebKit/537.36 (KHTML, like Gecko) draw.io/24.6.4 Chrome/124.0.6367.207 Electron/30.0.6 Safari/537.36" etag="NBWvvMhcpk2aIFaaJcWn" version="24.6.4" type="device" pages="5">
  <diagram id="Rfz-nHKzfFXtIfp8jGCo" name="main">
    <mxGraphModel dx="1029" dy="713" grid="1" gridSize="10" guides="1" tooltips="1" connect="1" arrows="1" fold="1" page="1" pageScale="1" pageWidth="850" pageHeight="1100" math="0" shadow="0">
      <root>
        <mxCell id="0" />
        <mxCell id="1" parent="0" />
        <mxCell id="hoKDfPiT84zjuGXgIaqV-1" value="Player 1" style="rounded=1;whiteSpace=wrap;html=1;container=1;recursiveResize=0;verticalAlign=top;arcSize=6;fontStyle=1;autosize=0;points=[];absoluteArcSize=1;shadow=1;strokeColor=#6c8ebf;fillColor=#dae8fc;fontFamily=Helvetica;fontSize=11;gradientColor=#0050EF;fontColor=default;" vertex="1" parent="1">
          <mxGeometry x="90" y="200" width="138" height="110" as="geometry">
            <mxRectangle x="-98" y="-1230" width="99" height="26" as="alternateBounds" />
          </mxGeometry>
        </mxCell>
        <mxCell id="hoKDfPiT84zjuGXgIaqV-3" value="smack" style="rounded=1;whiteSpace=wrap;html=1;sketch=0;points=[[0,0.5,0,0,0],[1,0.5,0,0,0]];fillColor=#1ba1e2;fontColor=#ffffff;strokeColor=#006EAF;arcSize=50;fontFamily=Helvetica;fontSize=11;" vertex="1" parent="hoKDfPiT84zjuGXgIaqV-1">
          <mxGeometry x="120" y="70" width="36" height="25" as="geometry" />
        </mxCell>
        <mxCell id="VDrHZGeF9uGekSf8CK12-1" value="Player 2" style="rounded=1;whiteSpace=wrap;html=1;container=1;recursiveResize=0;verticalAlign=top;arcSize=6;fontStyle=1;autosize=0;points=[];absoluteArcSize=1;shadow=1;strokeColor=#6c8ebf;fillColor=#dae8fc;fontFamily=Helvetica;fontSize=11;gradientColor=#0050EF;fontColor=default;" vertex="1" parent="1">
          <mxGeometry x="570" y="200" width="138" height="110" as="geometry">
            <mxRectangle x="-98" y="-1230" width="99" height="26" as="alternateBounds" />
          </mxGeometry>
        </mxCell>
        <mxCell id="VDrHZGeF9uGekSf8CK12-3" value="smack" style="rounded=1;whiteSpace=wrap;html=1;sketch=0;points=[[0,0.5,0,0,0],[1,0.5,0,0,0]];fillColor=#1ba1e2;fontColor=#ffffff;strokeColor=#006EAF;arcSize=50;fontFamily=Helvetica;fontSize=11;" vertex="1" parent="VDrHZGeF9uGekSf8CK12-1">
          <mxGeometry x="-10" y="70" width="36" height="25" as="geometry" />
        </mxCell>
        <mxCell id="VDrHZGeF9uGekSf8CK12-5" value="Game" style="rounded=1;whiteSpace=wrap;html=1;container=1;recursiveResize=0;verticalAlign=top;arcSize=6;fontStyle=1;autosize=0;points=[];absoluteArcSize=1;shadow=1;strokeColor=#6c8ebf;fillColor=#dae8fc;fontFamily=Helvetica;fontSize=11;gradientColor=#0050EF;fontColor=default;" vertex="1" parent="1">
          <mxGeometry x="320" y="200" width="140" height="110" as="geometry">
            <mxRectangle x="-98" y="-1230" width="99" height="26" as="alternateBounds" />
          </mxGeometry>
        </mxCell>
        <mxCell id="VDrHZGeF9uGekSf8CK12-6" value="start" style="rounded=1;whiteSpace=wrap;html=1;sketch=0;points=[[0,0.5,0,0,0],[1,0.5,0,0,0]];arcSize=50;fontFamily=Helvetica;fontSize=11;fontColor=default;" vertex="1" parent="VDrHZGeF9uGekSf8CK12-5">
          <mxGeometry x="-16.75" y="27.5" width="36.75" height="25" as="geometry" />
        </mxCell>
        <mxCell id="VDrHZGeF9uGekSf8CK12-9" value="smack 1" style="rounded=1;whiteSpace=wrap;html=1;sketch=0;points=[[0,0.5,0,0,0],[1,0.5,0,0,0]];arcSize=50;fontFamily=Helvetica;fontSize=11;fontColor=default;" vertex="1" parent="VDrHZGeF9uGekSf8CK12-5">
          <mxGeometry x="-16.75" y="70" width="36.75" height="25" as="geometry" />
        </mxCell>
        <mxCell id="VDrHZGeF9uGekSf8CK12-10" value="smack 2" style="rounded=1;whiteSpace=wrap;html=1;sketch=0;points=[[0,0.5,0,0,0],[1,0.5,0,0,0]];arcSize=50;fontFamily=Helvetica;fontSize=11;fontColor=default;" vertex="1" parent="VDrHZGeF9uGekSf8CK12-5">
          <mxGeometry x="120" y="70" width="36.75" height="25" as="geometry" />
        </mxCell>
        <mxCell id="VDrHZGeF9uGekSf8CK12-11" style="edgeStyle=orthogonalEdgeStyle;rounded=1;orthogonalLoop=1;jettySize=auto;html=1;exitX=1;exitY=0.5;exitDx=0;exitDy=0;exitPerimeter=0;entryX=0;entryY=0.5;entryDx=0;entryDy=0;entryPerimeter=0;strokeWidth=2;curved=0;" edge="1" parent="1" source="hoKDfPiT84zjuGXgIaqV-3" target="VDrHZGeF9uGekSf8CK12-9">
          <mxGeometry relative="1" as="geometry" />
        </mxCell>
        <mxCell id="VDrHZGeF9uGekSf8CK12-12" style="edgeStyle=orthogonalEdgeStyle;rounded=1;orthogonalLoop=1;jettySize=auto;html=1;exitX=0;exitY=0.5;exitDx=0;exitDy=0;exitPerimeter=0;entryX=1;entryY=0.5;entryDx=0;entryDy=0;entryPerimeter=0;strokeWidth=2;curved=0;" edge="1" parent="1" source="VDrHZGeF9uGekSf8CK12-3" target="VDrHZGeF9uGekSf8CK12-10">
          <mxGeometry relative="1" as="geometry" />
        </mxCell>
        <mxCell id="VDrHZGeF9uGekSf8CK12-13" value="start" style="rhombus;whiteSpace=wrap;html=1;rounded=1;fontStyle=1;glass=0;sketch=0;fontSize=12;points=[[0,0.5,0,0,0],[0.5,0,0,0,0],[0.5,1,0,0,0],[1,0.5,0,0,0]];shadow=1;fontFamily=Helvetica;fontColor=default;" vertex="1" parent="1">
          <mxGeometry x="20" y="80" width="40" height="40" as="geometry" />
        </mxCell>
        <mxCell id="VDrHZGeF9uGekSf8CK12-14" style="edgeStyle=orthogonalEdgeStyle;rounded=1;orthogonalLoop=1;jettySize=auto;html=1;exitX=1;exitY=0.5;exitDx=0;exitDy=0;exitPerimeter=0;entryX=0;entryY=0.5;entryDx=0;entryDy=0;entryPerimeter=0;strokeWidth=2;curved=0;" edge="1" parent="1" source="VDrHZGeF9uGekSf8CK12-13" target="VDrHZGeF9uGekSf8CK12-6">
          <mxGeometry relative="1" as="geometry">
            <Array as="points">
              <mxPoint x="260" y="100" />
              <mxPoint x="260" y="240" />
            </Array>
          </mxGeometry>
        </mxCell>
      </root>
    </mxGraphModel>
  </diagram>
  <diagram id="ZC2rCv8dyZWgffLveUQd" name="Player 1">
    <mxGraphModel dx="897" dy="713" grid="1" gridSize="10" guides="1" tooltips="1" connect="1" arrows="1" fold="1" page="1" pageScale="1" pageWidth="1100" pageHeight="850" math="0" shadow="0">
      <root>
        <mxCell id="0" />
        <mxCell id="1" parent="0" />
        <mxCell id="vh4z54Qb1bM7_h3xSzyE-2" value="Z key" style="rounded=1;whiteSpace=wrap;html=1;sketch=0;container=1;recursiveResize=0;verticalAlign=top;arcSize=6;fontStyle=1;autosize=0;points=[];absoluteArcSize=1;shadow=1;strokeColor=#666666;fillColor=#FFFFFF;fontColor=#333333;connectable=0;gradientColor=#FFF2CC;fontFamily=Helvetica;fontSize=11;" vertex="1" parent="1">
          <mxGeometry x="280" y="160" width="127" height="87" as="geometry">
            <mxRectangle x="-98" y="-1230" width="99" height="26" as="alternateBounds" />
          </mxGeometry>
        </mxCell>
        <mxCell id="vh4z54Qb1bM7_h3xSzyE-4" value="" style="rounded=1;whiteSpace=wrap;html=1;sketch=0;points=[[0,0.5,0,0,0],[1,0.5,0,0,0]];fillColor=#1ba1e2;fontColor=#ffffff;strokeColor=#006EAF;arcSize=50;fontFamily=Helvetica;fontSize=11;" vertex="1" parent="vh4z54Qb1bM7_h3xSzyE-2">
          <mxGeometry x="107" y="36" width="35.25" height="25" as="geometry" />
        </mxCell>
        <mxCell id="vh4z54Qb1bM7_h3xSzyE-5" value="smack" style="rhombus;whiteSpace=wrap;html=1;rounded=1;fontStyle=1;glass=0;sketch=0;fontSize=12;points=[[0,0.5,0,0,0],[0.5,0,0,0,0],[0.5,1,0,0,0],[1,0.5,0,0,0]];shadow=1;fontFamily=Helvetica;fontColor=default;" vertex="1" parent="1">
          <mxGeometry x="560" y="188.5" width="40" height="40" as="geometry" />
        </mxCell>
        <mxCell id="vh4z54Qb1bM7_h3xSzyE-6" style="edgeStyle=orthogonalEdgeStyle;rounded=1;orthogonalLoop=1;jettySize=auto;html=1;exitX=1;exitY=0.5;exitDx=0;exitDy=0;exitPerimeter=0;entryX=0;entryY=0.5;entryDx=0;entryDy=0;entryPerimeter=0;strokeWidth=2;curved=0;" edge="1" parent="1" source="vh4z54Qb1bM7_h3xSzyE-4" target="vh4z54Qb1bM7_h3xSzyE-5">
          <mxGeometry relative="1" as="geometry" />
        </mxCell>
      </root>
    </mxGraphModel>
  </diagram>
  <diagram name="Player 2" id="WKw39EiRNFSo0fUhhbFd">
    <mxGraphModel dx="897" dy="713" grid="1" gridSize="10" guides="1" tooltips="1" connect="1" arrows="1" fold="1" page="1" pageScale="1" pageWidth="1100" pageHeight="850" math="0" shadow="0">
      <root>
        <mxCell id="tMV5njZ0acTeYm1KYxqS-0" />
        <mxCell id="tMV5njZ0acTeYm1KYxqS-1" parent="tMV5njZ0acTeYm1KYxqS-0" />
        <mxCell id="tMV5njZ0acTeYm1KYxqS-2" value="Slash key" style="rounded=1;whiteSpace=wrap;html=1;sketch=0;container=1;recursiveResize=0;verticalAlign=top;arcSize=6;fontStyle=1;autosize=0;points=[];absoluteArcSize=1;shadow=1;strokeColor=#666666;fillColor=#FFFFFF;fontColor=#333333;connectable=0;gradientColor=#FFF2CC;fontFamily=Helvetica;fontSize=11;" vertex="1" parent="tMV5njZ0acTeYm1KYxqS-1">
          <mxGeometry x="280" y="160" width="127" height="87" as="geometry">
            <mxRectangle x="-98" y="-1230" width="99" height="26" as="alternateBounds" />
          </mxGeometry>
        </mxCell>
        <mxCell id="tMV5njZ0acTeYm1KYxqS-3" value="" style="rounded=1;whiteSpace=wrap;html=1;sketch=0;points=[[0,0.5,0,0,0],[1,0.5,0,0,0]];fillColor=#1ba1e2;fontColor=#ffffff;strokeColor=#006EAF;arcSize=50;fontFamily=Helvetica;fontSize=11;" vertex="1" parent="tMV5njZ0acTeYm1KYxqS-2">
          <mxGeometry x="107" y="36" width="35.25" height="25" as="geometry" />
        </mxCell>
        <mxCell id="tMV5njZ0acTeYm1KYxqS-4" value="smack" style="rhombus;whiteSpace=wrap;html=1;rounded=1;fontStyle=1;glass=0;sketch=0;fontSize=12;points=[[0,0.5,0,0,0],[0.5,0,0,0,0],[0.5,1,0,0,0],[1,0.5,0,0,0]];shadow=1;fontFamily=Helvetica;fontColor=default;" vertex="1" parent="tMV5njZ0acTeYm1KYxqS-1">
          <mxGeometry x="560" y="188.5" width="40" height="40" as="geometry" />
        </mxCell>
        <mxCell id="tMV5njZ0acTeYm1KYxqS-5" style="edgeStyle=orthogonalEdgeStyle;rounded=1;orthogonalLoop=1;jettySize=auto;html=1;exitX=1;exitY=0.5;exitDx=0;exitDy=0;exitPerimeter=0;entryX=0;entryY=0.5;entryDx=0;entryDy=0;entryPerimeter=0;strokeWidth=2;curved=0;" edge="1" parent="tMV5njZ0acTeYm1KYxqS-1" source="tMV5njZ0acTeYm1KYxqS-3" target="tMV5njZ0acTeYm1KYxqS-4">
          <mxGeometry relative="1" as="geometry" />
        </mxCell>
      </root>
    </mxGraphModel>
  </diagram>
  <diagram id="pXu5nu43ClT3es1-WTOk" name="Game">
    <mxGraphModel dx="1029" dy="713" grid="1" gridSize="10" guides="1" tooltips="1" connect="1" arrows="1" fold="1" page="1" pageScale="1" pageWidth="1100" pageHeight="850" math="0" shadow="0">
      <root>
        <mxCell id="0" />
        <mxCell id="1" parent="0" />
        <mxCell id="Jw8TWvyaR_BrAl_DcGub-1" value="start" style="rhombus;whiteSpace=wrap;html=1;rounded=1;fontStyle=1;glass=0;sketch=0;fontSize=12;points=[[0,0.5,0,0,0],[0.5,0,0,0,0],[0.5,1,0,0,0],[1,0.5,0,0,0]];shadow=1;fontFamily=Helvetica;fontColor=default;" vertex="1" parent="1">
          <mxGeometry x="120" y="120" width="40" height="40" as="geometry" />
        </mxCell>
        <mxCell id="Jw8TWvyaR_BrAl_DcGub-3" value="smack 2" style="rhombus;whiteSpace=wrap;html=1;rounded=1;fontStyle=1;glass=0;sketch=0;fontSize=12;points=[[0,0.5,0,0,0],[0.5,0,0,0,0],[0.5,1,0,0,0],[1,0.5,0,0,0]];shadow=1;fontFamily=Helvetica;fontColor=default;" vertex="1" parent="1">
          <mxGeometry x="130" y="500" width="40" height="40" as="geometry" />
        </mxCell>
        <mxCell id="VUqafN399HMkGjgvNazz-4" value="Debounce" style="rounded=1;whiteSpace=wrap;html=1;container=1;recursiveResize=0;verticalAlign=top;arcSize=6;fontStyle=1;autosize=0;points=[];absoluteArcSize=1;shadow=1;strokeColor=#6c8ebf;fillColor=#dae8fc;fontFamily=Helvetica;fontSize=11;gradientColor=#0050EF;fontColor=default;" vertex="1" parent="1">
          <mxGeometry x="280" y="440" width="100" height="150" as="geometry">
            <mxRectangle x="-98" y="-1230" width="99" height="26" as="alternateBounds" />
          </mxGeometry>
        </mxCell>
        <mxCell id="VUqafN399HMkGjgvNazz-7" value="smack" style="rounded=1;whiteSpace=wrap;html=1;sketch=0;points=[[0,0.5,0,0,0],[1,0.5,0,0,0]];arcSize=50;fontFamily=Helvetica;fontSize=11;fontColor=default;" vertex="1" parent="VUqafN399HMkGjgvNazz-4">
          <mxGeometry x="-20" y="67.5" width="36.75" height="25" as="geometry" />
        </mxCell>
        <mxCell id="VUqafN399HMkGjgvNazz-9" value="tick" style="rounded=1;whiteSpace=wrap;html=1;sketch=0;points=[[0,0.5,0,0,0],[1,0.5,0,0,0]];arcSize=50;fontFamily=Helvetica;fontSize=11;fontColor=default;" vertex="1" parent="VUqafN399HMkGjgvNazz-4">
          <mxGeometry x="-20" y="110" width="36.75" height="25" as="geometry" />
        </mxCell>
        <mxCell id="VUqafN399HMkGjgvNazz-5" value="smack" style="rounded=1;whiteSpace=wrap;html=1;sketch=0;points=[[0,0.5,0,0,0],[1,0.5,0,0,0]];fillColor=#1ba1e2;fontColor=#ffffff;strokeColor=#006EAF;arcSize=50;fontFamily=Helvetica;fontSize=11;" vertex="1" parent="VUqafN399HMkGjgvNazz-4">
          <mxGeometry x="79.25" y="20" width="36" height="25" as="geometry" />
        </mxCell>
        <mxCell id="VUqafN399HMkGjgvNazz-14" value="enable" style="rounded=1;whiteSpace=wrap;html=1;sketch=0;points=[[0,0.5,0,0,0],[1,0.5,0,0,0]];arcSize=50;fontFamily=Helvetica;fontSize=11;fontColor=default;" vertex="1" parent="VUqafN399HMkGjgvNazz-4">
          <mxGeometry x="79.25" y="60" width="36.75" height="25" as="geometry" />
        </mxCell>
        <mxCell id="VUqafN399HMkGjgvNazz-15" style="edgeStyle=orthogonalEdgeStyle;rounded=1;orthogonalLoop=1;jettySize=auto;html=1;exitX=1;exitY=0.5;exitDx=0;exitDy=0;exitPerimeter=0;entryX=0;entryY=0.5;entryDx=0;entryDy=0;entryPerimeter=0;strokeWidth=2;curved=0;" edge="1" parent="1" source="Jw8TWvyaR_BrAl_DcGub-3" target="VUqafN399HMkGjgvNazz-7">
          <mxGeometry relative="1" as="geometry" />
        </mxCell>
        <mxCell id="VUqafN399HMkGjgvNazz-16" value="smack 1" style="rhombus;whiteSpace=wrap;html=1;rounded=1;fontStyle=1;glass=0;sketch=0;fontSize=12;points=[[0,0.5,0,0,0],[0.5,0,0,0,0],[0.5,1,0,0,0],[1,0.5,0,0,0]];shadow=1;fontFamily=Helvetica;fontColor=default;" vertex="1" parent="1">
          <mxGeometry x="130" y="300" width="40" height="40" as="geometry" />
        </mxCell>
        <mxCell id="VUqafN399HMkGjgvNazz-17" value="Debounce" style="rounded=1;whiteSpace=wrap;html=1;container=1;recursiveResize=0;verticalAlign=top;arcSize=6;fontStyle=1;autosize=0;points=[];absoluteArcSize=1;shadow=1;strokeColor=#6c8ebf;fillColor=#dae8fc;fontFamily=Helvetica;fontSize=11;gradientColor=#0050EF;fontColor=default;" vertex="1" parent="1">
          <mxGeometry x="280" y="240" width="100" height="150" as="geometry">
            <mxRectangle x="-98" y="-1230" width="99" height="26" as="alternateBounds" />
          </mxGeometry>
        </mxCell>
        <mxCell id="VUqafN399HMkGjgvNazz-18" value="smack" style="rounded=1;whiteSpace=wrap;html=1;sketch=0;points=[[0,0.5,0,0,0],[1,0.5,0,0,0]];fillColor=#1ba1e2;fontColor=#ffffff;strokeColor=#006EAF;arcSize=50;fontFamily=Helvetica;fontSize=11;" vertex="1" parent="VUqafN399HMkGjgvNazz-17">
          <mxGeometry x="80" y="110" width="36" height="25" as="geometry" />
        </mxCell>
        <mxCell id="VUqafN399HMkGjgvNazz-20" value="enable" style="rounded=1;whiteSpace=wrap;html=1;sketch=0;points=[[0,0.5,0,0,0],[1,0.5,0,0,0]];arcSize=50;fontFamily=Helvetica;fontSize=11;fontColor=default;" vertex="1" parent="VUqafN399HMkGjgvNazz-17">
          <mxGeometry x="80" y="67.5" width="36.75" height="25" as="geometry" />
        </mxCell>
        <mxCell id="VUqafN399HMkGjgvNazz-21" value="smack" style="rounded=1;whiteSpace=wrap;html=1;sketch=0;points=[[0,0.5,0,0,0],[1,0.5,0,0,0]];arcSize=50;fontFamily=Helvetica;fontSize=11;fontColor=default;" vertex="1" parent="VUqafN399HMkGjgvNazz-17">
          <mxGeometry x="-20" y="67.5" width="36.75" height="25" as="geometry" />
        </mxCell>
        <mxCell id="VUqafN399HMkGjgvNazz-19" value="tick" style="rounded=1;whiteSpace=wrap;html=1;sketch=0;points=[[0,0.5,0,0,0],[1,0.5,0,0,0]];arcSize=50;fontFamily=Helvetica;fontSize=11;fontColor=default;" vertex="1" parent="VUqafN399HMkGjgvNazz-17">
          <mxGeometry x="-20" y="110" width="36.75" height="25" as="geometry" />
        </mxCell>
        <mxCell id="VUqafN399HMkGjgvNazz-22" style="edgeStyle=orthogonalEdgeStyle;rounded=1;orthogonalLoop=1;jettySize=auto;html=1;exitX=1;exitY=0.5;exitDx=0;exitDy=0;exitPerimeter=0;entryX=0;entryY=0.5;entryDx=0;entryDy=0;entryPerimeter=0;strokeWidth=2;curved=0;" edge="1" parent="1" source="VUqafN399HMkGjgvNazz-16" target="VUqafN399HMkGjgvNazz-21">
          <mxGeometry relative="1" as="geometry" />
        </mxCell>
        <mxCell id="VUqafN399HMkGjgvNazz-23" value="clock" style="rounded=1;whiteSpace=wrap;html=1;container=1;recursiveResize=0;verticalAlign=top;arcSize=6;fontStyle=1;autosize=0;points=[];absoluteArcSize=1;shadow=1;strokeColor=#6c8ebf;fillColor=#dae8fc;fontFamily=Helvetica;fontSize=11;gradientColor=#0050EF;fontColor=default;" vertex="1" parent="1">
          <mxGeometry x="560" y="600" width="140" height="100" as="geometry">
            <mxRectangle x="-98" y="-1230" width="99" height="26" as="alternateBounds" />
          </mxGeometry>
        </mxCell>
        <mxCell id="VUqafN399HMkGjgvNazz-24" value="tick" style="rounded=1;whiteSpace=wrap;html=1;sketch=0;points=[[0,0.5,0,0,0],[1,0.5,0,0,0]];fillColor=#1ba1e2;fontColor=#ffffff;strokeColor=#006EAF;arcSize=50;fontFamily=Helvetica;fontSize=11;" vertex="1" parent="VUqafN399HMkGjgvNazz-23">
          <mxGeometry x="-10" y="62.5" width="36" height="25" as="geometry" />
        </mxCell>
        <mxCell id="VUqafN399HMkGjgvNazz-26" value="start" style="rounded=1;whiteSpace=wrap;html=1;sketch=0;points=[[0,0.5,0,0,0],[1,0.5,0,0,0]];arcSize=50;fontFamily=Helvetica;fontSize=11;fontColor=default;" vertex="1" parent="VUqafN399HMkGjgvNazz-23">
          <mxGeometry x="-10" y="27.5" width="36.75" height="25" as="geometry" />
        </mxCell>
        <mxCell id="VUqafN399HMkGjgvNazz-27" style="edgeStyle=orthogonalEdgeStyle;rounded=1;orthogonalLoop=1;jettySize=auto;html=1;exitX=0;exitY=0.5;exitDx=0;exitDy=0;exitPerimeter=0;entryX=0;entryY=0.5;entryDx=0;entryDy=0;entryPerimeter=0;strokeWidth=2;curved=0;" edge="1" parent="1" source="VUqafN399HMkGjgvNazz-24" target="VUqafN399HMkGjgvNazz-19">
          <mxGeometry relative="1" as="geometry">
            <Array as="points">
              <mxPoint x="220" y="675" />
              <mxPoint x="220" y="363" />
            </Array>
          </mxGeometry>
        </mxCell>
        <mxCell id="VUqafN399HMkGjgvNazz-29" value="Game Logic" style="rounded=1;whiteSpace=wrap;html=1;container=1;recursiveResize=0;verticalAlign=top;arcSize=6;fontStyle=1;autosize=0;points=[];absoluteArcSize=1;shadow=1;strokeColor=#6c8ebf;fillColor=#dae8fc;fontFamily=Helvetica;fontSize=11;gradientColor=#0050EF;fontColor=default;" vertex="1" parent="1">
          <mxGeometry x="560" y="160" width="140" height="400" as="geometry">
            <mxRectangle x="-98" y="-1230" width="99" height="26" as="alternateBounds" />
          </mxGeometry>
        </mxCell>
        <mxCell id="VUqafN399HMkGjgvNazz-31" value="tick" style="rounded=1;whiteSpace=wrap;html=1;sketch=0;points=[[0,0.5,0,0,0],[1,0.5,0,0,0]];arcSize=50;fontFamily=Helvetica;fontSize=11;fontColor=default;" vertex="1" parent="VUqafN399HMkGjgvNazz-29">
          <mxGeometry x="-20" y="350" width="36.75" height="25" as="geometry" />
        </mxCell>
        <mxCell id="VUqafN399HMkGjgvNazz-39" value="left highlight" style="rounded=1;whiteSpace=wrap;html=1;sketch=0;points=[[0,0.5,0,0,0],[1,0.5,0,0,0]];fillColor=#1ba1e2;fontColor=#ffffff;strokeColor=#006EAF;arcSize=50;fontFamily=Helvetica;fontSize=11;" vertex="1" parent="VUqafN399HMkGjgvNazz-29">
          <mxGeometry x="96" y="107.5" width="60" height="25" as="geometry" />
        </mxCell>
        <mxCell id="VUqafN399HMkGjgvNazz-40" value="right highlight" style="rounded=1;whiteSpace=wrap;html=1;sketch=0;points=[[0,0.5,0,0,0],[1,0.5,0,0,0]];fillColor=#1ba1e2;fontColor=#ffffff;strokeColor=#006EAF;arcSize=50;fontFamily=Helvetica;fontSize=11;" vertex="1" parent="VUqafN399HMkGjgvNazz-29">
          <mxGeometry x="100" y="150" width="56" height="25" as="geometry" />
        </mxCell>
        <mxCell id="VUqafN399HMkGjgvNazz-44" value="smack L" style="rounded=1;whiteSpace=wrap;html=1;sketch=0;points=[[0,0.5,0,0,0],[1,0.5,0,0,0]];arcSize=50;fontFamily=Helvetica;fontSize=11;" vertex="1" parent="VUqafN399HMkGjgvNazz-29">
          <mxGeometry x="-20" y="190" width="50" height="25" as="geometry" />
        </mxCell>
        <mxCell id="VUqafN399HMkGjgvNazz-45" value="smack R" style="rounded=1;whiteSpace=wrap;html=1;sketch=0;points=[[0,0.5,0,0,0],[1,0.5,0,0,0]];arcSize=50;fontFamily=Helvetica;fontSize=11;" vertex="1" parent="VUqafN399HMkGjgvNazz-29">
          <mxGeometry x="-20" y="230" width="50" height="25" as="geometry" />
        </mxCell>
        <mxCell id="Z6jryTYULtQlVPuB3-_i-2" value="L smack window" style="rounded=1;whiteSpace=wrap;html=1;sketch=0;points=[[0,0.5,0,0,0],[1,0.5,0,0,0]];arcSize=50;fontFamily=Helvetica;fontSize=11;fillColor=#1ba1e2;fontColor=#ffffff;strokeColor=#006EAF;" vertex="1" parent="VUqafN399HMkGjgvNazz-29">
          <mxGeometry x="-20" y="160" width="50" height="25" as="geometry" />
        </mxCell>
        <mxCell id="Z6jryTYULtQlVPuB3-_i-5" value="R smack window" style="rounded=1;whiteSpace=wrap;html=1;sketch=0;points=[[0,0.5,0,0,0],[1,0.5,0,0,0]];arcSize=50;fontFamily=Helvetica;fontSize=11;fillColor=#1ba1e2;fontColor=#ffffff;strokeColor=#006EAF;" vertex="1" parent="VUqafN399HMkGjgvNazz-29">
          <mxGeometry x="-20" y="265" width="50" height="25" as="geometry" />
        </mxCell>
        <mxCell id="Z6jryTYULtQlVPuB3-_i-8" value="winner" style="rounded=1;whiteSpace=wrap;html=1;sketch=0;points=[[0,0.5,0,0,0],[1,0.5,0,0,0]];fillColor=#1ba1e2;fontColor=#ffffff;strokeColor=#006EAF;arcSize=50;fontFamily=Helvetica;fontSize=11;" vertex="1" parent="VUqafN399HMkGjgvNazz-29">
          <mxGeometry x="100" y="200" width="56" height="25" as="geometry" />
        </mxCell>
        <mxCell id="VUqafN399HMkGjgvNazz-32" style="edgeStyle=orthogonalEdgeStyle;rounded=1;orthogonalLoop=1;jettySize=auto;html=1;exitX=0;exitY=0.5;exitDx=0;exitDy=0;exitPerimeter=0;entryX=0;entryY=0.5;entryDx=0;entryDy=0;entryPerimeter=0;curved=0;strokeWidth=2;" edge="1" parent="1" source="VUqafN399HMkGjgvNazz-24" target="VUqafN399HMkGjgvNazz-31">
          <mxGeometry relative="1" as="geometry">
            <Array as="points">
              <mxPoint x="470" y="675" />
              <mxPoint x="470" y="523" />
            </Array>
          </mxGeometry>
        </mxCell>
        <mxCell id="VUqafN399HMkGjgvNazz-33" value="Display" style="rounded=1;whiteSpace=wrap;html=1;container=1;recursiveResize=0;verticalAlign=top;arcSize=6;fontStyle=1;autosize=0;points=[];absoluteArcSize=1;shadow=1;strokeColor=#6c8ebf;fillColor=#dae8fc;fontFamily=Helvetica;fontSize=11;gradientColor=#0050EF;fontColor=default;" vertex="1" parent="1">
          <mxGeometry x="800" y="200" width="140" height="200" as="geometry">
            <mxRectangle x="-98" y="-1230" width="99" height="26" as="alternateBounds" />
          </mxGeometry>
        </mxCell>
        <mxCell id="VUqafN399HMkGjgvNazz-35" value="ball position" style="rounded=1;whiteSpace=wrap;html=1;sketch=0;points=[[0,0.5,0,0,0],[1,0.5,0,0,0]];arcSize=50;fontFamily=Helvetica;fontSize=11;fontColor=default;" vertex="1" parent="VUqafN399HMkGjgvNazz-33">
          <mxGeometry x="-10" y="30" width="50" height="25" as="geometry" />
        </mxCell>
        <mxCell id="VUqafN399HMkGjgvNazz-36" value="highlight paddle left" style="rounded=1;whiteSpace=wrap;html=1;sketch=0;points=[[0,0.5,0,0,0],[1,0.5,0,0,0]];arcSize=50;fontFamily=Helvetica;fontSize=11;fontColor=default;" vertex="1" parent="VUqafN399HMkGjgvNazz-33">
          <mxGeometry x="-10" y="67.5" width="70" height="25" as="geometry" />
        </mxCell>
        <mxCell id="VUqafN399HMkGjgvNazz-37" value="highligh paddle right" style="rounded=1;whiteSpace=wrap;html=1;sketch=0;points=[[0,0.5,0,0,0],[1,0.5,0,0,0]];arcSize=50;fontFamily=Helvetica;fontSize=11;fontColor=default;" vertex="1" parent="VUqafN399HMkGjgvNazz-33">
          <mxGeometry x="-10" y="110" width="70" height="25" as="geometry" />
        </mxCell>
        <mxCell id="Z6jryTYULtQlVPuB3-_i-7" value="winner" style="rounded=1;whiteSpace=wrap;html=1;sketch=0;points=[[0,0.5,0,0,0],[1,0.5,0,0,0]];arcSize=50;fontFamily=Helvetica;fontSize=11;fontColor=default;" vertex="1" parent="VUqafN399HMkGjgvNazz-33">
          <mxGeometry x="-10" y="160" width="50" height="25" as="geometry" />
        </mxCell>
        <mxCell id="VUqafN399HMkGjgvNazz-38" value="ball pos" style="rounded=1;whiteSpace=wrap;html=1;sketch=0;points=[[0,0.5,0,0,0],[1,0.5,0,0,0]];fillColor=#1ba1e2;fontColor=#ffffff;strokeColor=#006EAF;arcSize=50;fontFamily=Helvetica;fontSize=11;" vertex="1" parent="1">
          <mxGeometry x="666" y="230" width="50" height="25" as="geometry" />
        </mxCell>
        <mxCell id="VUqafN399HMkGjgvNazz-41" style="edgeStyle=orthogonalEdgeStyle;rounded=1;orthogonalLoop=1;jettySize=auto;html=1;exitX=1;exitY=0.5;exitDx=0;exitDy=0;exitPerimeter=0;entryX=0;entryY=0.5;entryDx=0;entryDy=0;entryPerimeter=0;curved=0;strokeWidth=2;" edge="1" parent="1" source="VUqafN399HMkGjgvNazz-38" target="VUqafN399HMkGjgvNazz-35">
          <mxGeometry relative="1" as="geometry" />
        </mxCell>
        <mxCell id="VUqafN399HMkGjgvNazz-42" style="edgeStyle=orthogonalEdgeStyle;shape=connector;curved=0;rounded=1;orthogonalLoop=1;jettySize=auto;html=1;exitX=1;exitY=0.5;exitDx=0;exitDy=0;exitPerimeter=0;entryX=0;entryY=0.5;entryDx=0;entryDy=0;entryPerimeter=0;strokeColor=default;strokeWidth=2;align=center;verticalAlign=middle;fontFamily=Helvetica;fontSize=11;fontColor=default;labelBackgroundColor=default;endArrow=classic;" edge="1" parent="1" source="VUqafN399HMkGjgvNazz-39" target="VUqafN399HMkGjgvNazz-36">
          <mxGeometry relative="1" as="geometry" />
        </mxCell>
        <mxCell id="VUqafN399HMkGjgvNazz-43" style="edgeStyle=orthogonalEdgeStyle;shape=connector;curved=0;rounded=1;orthogonalLoop=1;jettySize=auto;html=1;exitX=1;exitY=0.5;exitDx=0;exitDy=0;exitPerimeter=0;entryX=0;entryY=0.5;entryDx=0;entryDy=0;entryPerimeter=0;strokeColor=default;strokeWidth=2;align=center;verticalAlign=middle;fontFamily=Helvetica;fontSize=11;fontColor=default;labelBackgroundColor=default;endArrow=classic;" edge="1" parent="1" source="VUqafN399HMkGjgvNazz-40" target="VUqafN399HMkGjgvNazz-37">
          <mxGeometry relative="1" as="geometry" />
        </mxCell>
        <mxCell id="VUqafN399HMkGjgvNazz-46" style="edgeStyle=orthogonalEdgeStyle;shape=connector;curved=0;rounded=1;orthogonalLoop=1;jettySize=auto;html=1;exitX=1;exitY=0.5;exitDx=0;exitDy=0;exitPerimeter=0;entryX=0;entryY=0.5;entryDx=0;entryDy=0;entryPerimeter=0;strokeColor=default;strokeWidth=2;align=center;verticalAlign=middle;fontFamily=Helvetica;fontSize=11;fontColor=default;labelBackgroundColor=default;endArrow=classic;" edge="1" parent="1" source="VUqafN399HMkGjgvNazz-18" target="VUqafN399HMkGjgvNazz-44">
          <mxGeometry relative="1" as="geometry" />
        </mxCell>
        <mxCell id="VUqafN399HMkGjgvNazz-47" style="edgeStyle=orthogonalEdgeStyle;shape=connector;curved=0;rounded=1;orthogonalLoop=1;jettySize=auto;html=1;exitX=1;exitY=0.5;exitDx=0;exitDy=0;exitPerimeter=0;entryX=0;entryY=0.5;entryDx=0;entryDy=0;entryPerimeter=0;strokeColor=default;strokeWidth=2;align=center;verticalAlign=middle;fontFamily=Helvetica;fontSize=11;fontColor=default;labelBackgroundColor=default;endArrow=classic;" edge="1" parent="1" source="VUqafN399HMkGjgvNazz-5" target="VUqafN399HMkGjgvNazz-45">
          <mxGeometry relative="1" as="geometry">
            <Array as="points">
              <mxPoint x="395" y="470" />
              <mxPoint x="430" y="470" />
              <mxPoint x="430" y="403" />
            </Array>
          </mxGeometry>
        </mxCell>
        <mxCell id="Z6jryTYULtQlVPuB3-_i-1" style="edgeStyle=orthogonalEdgeStyle;shape=connector;curved=0;rounded=1;orthogonalLoop=1;jettySize=auto;html=1;exitX=0;exitY=0.5;exitDx=0;exitDy=0;exitPerimeter=0;strokeColor=default;strokeWidth=2;align=center;verticalAlign=middle;fontFamily=Helvetica;fontSize=11;fontColor=default;labelBackgroundColor=default;endArrow=classic;" edge="1" parent="1" source="VUqafN399HMkGjgvNazz-24">
          <mxGeometry relative="1" as="geometry">
            <mxPoint x="260" y="563" as="targetPoint" />
            <Array as="points">
              <mxPoint x="220" y="675" />
              <mxPoint x="220" y="563" />
            </Array>
          </mxGeometry>
        </mxCell>
        <mxCell id="Z6jryTYULtQlVPuB3-_i-3" style="edgeStyle=orthogonalEdgeStyle;shape=connector;curved=0;rounded=1;orthogonalLoop=1;jettySize=auto;html=1;exitX=0;exitY=0.5;exitDx=0;exitDy=0;exitPerimeter=0;strokeColor=default;strokeWidth=2;align=center;verticalAlign=middle;fontFamily=Helvetica;fontSize=11;fontColor=default;labelBackgroundColor=default;endArrow=classic;" edge="1" parent="1" source="Z6jryTYULtQlVPuB3-_i-2" target="VUqafN399HMkGjgvNazz-20">
          <mxGeometry relative="1" as="geometry">
            <Array as="points">
              <mxPoint x="450" y="333" />
              <mxPoint x="450" y="320" />
            </Array>
          </mxGeometry>
        </mxCell>
        <mxCell id="Z6jryTYULtQlVPuB3-_i-6" style="edgeStyle=orthogonalEdgeStyle;shape=connector;curved=0;rounded=1;orthogonalLoop=1;jettySize=auto;html=1;exitX=0;exitY=0.5;exitDx=0;exitDy=0;exitPerimeter=0;entryX=1;entryY=0.5;entryDx=0;entryDy=0;entryPerimeter=0;strokeColor=default;strokeWidth=2;align=center;verticalAlign=middle;fontFamily=Helvetica;fontSize=11;fontColor=default;labelBackgroundColor=default;endArrow=classic;" edge="1" parent="1" source="Z6jryTYULtQlVPuB3-_i-5" target="VUqafN399HMkGjgvNazz-14">
          <mxGeometry relative="1" as="geometry">
            <Array as="points">
              <mxPoint x="450" y="438" />
              <mxPoint x="450" y="513" />
            </Array>
          </mxGeometry>
        </mxCell>
        <mxCell id="Z6jryTYULtQlVPuB3-_i-9" style="edgeStyle=orthogonalEdgeStyle;shape=connector;curved=0;rounded=1;orthogonalLoop=1;jettySize=auto;html=1;exitX=1;exitY=0.5;exitDx=0;exitDy=0;exitPerimeter=0;entryX=0;entryY=0.5;entryDx=0;entryDy=0;entryPerimeter=0;strokeColor=default;strokeWidth=2;align=center;verticalAlign=middle;fontFamily=Helvetica;fontSize=11;fontColor=default;labelBackgroundColor=default;endArrow=classic;" edge="1" parent="1" source="Z6jryTYULtQlVPuB3-_i-8" target="Z6jryTYULtQlVPuB3-_i-7">
          <mxGeometry relative="1" as="geometry" />
        </mxCell>
      </root>
    </mxGraphModel>
  </diagram>
  <diagram id="bkOo33ziIgpTTArXwO6G" name="Display">
    <mxGraphModel dx="1029" dy="713" grid="1" gridSize="10" guides="1" tooltips="1" connect="1" arrows="1" fold="1" page="1" pageScale="1" pageWidth="1100" pageHeight="850" math="0" shadow="0">
      <root>
        <mxCell id="0" />
        <mxCell id="1" parent="0" />
        <mxCell id="TMk03e7m2zpVBJdHNJT0-1" value="Display" style="rounded=1;whiteSpace=wrap;html=1;container=1;recursiveResize=0;verticalAlign=top;arcSize=6;fontStyle=1;autosize=0;points=[];absoluteArcSize=1;shadow=1;strokeColor=#6c8ebf;fillColor=#dae8fc;fontFamily=Helvetica;fontSize=11;gradientColor=#0050EF;fontColor=default;" vertex="1" parent="1">
          <mxGeometry x="200" y="120" width="140" height="200" as="geometry">
            <mxRectangle x="-98" y="-1230" width="99" height="26" as="alternateBounds" />
          </mxGeometry>
        </mxCell>
        <mxCell id="TMk03e7m2zpVBJdHNJT0-2" value="ball position" style="rounded=1;whiteSpace=wrap;html=1;sketch=0;points=[[0,0.5,0,0,0],[1,0.5,0,0,0]];arcSize=50;fontFamily=Helvetica;fontSize=11;fontColor=default;" vertex="1" parent="TMk03e7m2zpVBJdHNJT0-1">
          <mxGeometry x="-10" y="30" width="50" height="25" as="geometry" />
        </mxCell>
        <mxCell id="TMk03e7m2zpVBJdHNJT0-3" value="highlight paddle left" style="rounded=1;whiteSpace=wrap;html=1;sketch=0;points=[[0,0.5,0,0,0],[1,0.5,0,0,0]];arcSize=50;fontFamily=Helvetica;fontSize=11;fontColor=default;" vertex="1" parent="TMk03e7m2zpVBJdHNJT0-1">
          <mxGeometry x="-10" y="67.5" width="70" height="25" as="geometry" />
        </mxCell>
        <mxCell id="TMk03e7m2zpVBJdHNJT0-4" value="highligh paddle right" style="rounded=1;whiteSpace=wrap;html=1;sketch=0;points=[[0,0.5,0,0,0],[1,0.5,0,0,0]];arcSize=50;fontFamily=Helvetica;fontSize=11;fontColor=default;" vertex="1" parent="TMk03e7m2zpVBJdHNJT0-1">
          <mxGeometry x="-10" y="110" width="70" height="25" as="geometry" />
        </mxCell>
        <mxCell id="TMk03e7m2zpVBJdHNJT0-5" value="winner" style="rounded=1;whiteSpace=wrap;html=1;sketch=0;points=[[0,0.5,0,0,0],[1,0.5,0,0,0]];arcSize=50;fontFamily=Helvetica;fontSize=11;fontColor=default;" vertex="1" parent="TMk03e7m2zpVBJdHNJT0-1">
          <mxGeometry x="-10" y="160" width="50" height="25" as="geometry" />
        </mxCell>
      </root>
    </mxGraphModel>
  </diagram>
</mxfile>
